<svg xmlns="http://www.w3.org/2000/svg" xmlns:xlink="http://www.w3.org/1999/xlink" viewBox="0,0,255.99098,255.99098" width="48px" height="48px" fill-rule="nonzero"><g fill="#000000" fill-rule="nonzero" stroke="none" stroke-width="1" stroke-linecap="butt" stroke-linejoin="miter" stroke-miterlimit="10" stroke-dasharray="" stroke-dashoffset="0" font-family="none" font-weight="none" font-size="none" text-anchor="none" style="mix-blend-mode: normal"><g transform="scale(5.33333,5.33333)"><path d="M34.5,28.75c-0.591,0 -1.162,0.088 -1.704,0.242l-2.796,-4.992l2.796,-4.992c0.543,0.154 1.113,0.242 1.704,0.242c3.446,0 6.25,-2.804 6.25,-6.25c0,-3.446 -2.804,-6.25 -6.25,-6.25c-3.446,0 -6.25,2.804 -6.25,6.25c0,1.297 0.398,2.502 1.076,3.502l-3.076,5.248h-7.676c-0.906,-2.336 -3.172,-4 -5.824,-4c-3.446,0 -6.25,2.804 -6.25,6.25c0,3.446 2.804,6.25 6.25,6.25c2.652,0 4.918,-1.664 5.824,-4h7.676l3.076,5.248c-0.679,1 -1.076,2.205 -1.076,3.502c0,3.446 2.804,6.25 6.25,6.25c3.446,0 6.25,-2.804 6.25,-6.25c0,-3.446 -2.804,-6.25 -6.25,-6.25z" opacity="0.15"></path><circle cx="34.75" cy="13" r="4" opacity="0.8"></circle><circle cx="34.75" cy="35" r="4" opacity="0.8"></circle><circle cx="13" cy="24" r="4" opacity="0.8"></circle><path d="M29.263,23.452l-1.727,-1.01l0.252,-0.431l1.727,1.01zM30.166,21.907l-1.727,-1.01l-0.252,0.431l1.727,1.01zM30.817,20.793l-1.727,-1.01l-0.252,0.431l1.727,1.01zM31.468,19.68l-1.726,-1.01l-0.252,0.432l1.726,1.01zM20.929,23h-0.5v2h0.5zM22.09,23h-0.5v2h0.5zM23.252,23h-0.5v2h0.5zM24.413,23h-0.5v2h0.5zM25.574,23h-0.5v2h0.5zM26.735,23h-0.5v2h0.5zM29.515,24.979l-0.252,-0.431l-1.727,1.01l0.252,0.431zM30.166,26.093l-0.252,-0.431l-1.727,1.01l0.252,0.431zM30.817,27.207l-0.252,-0.431l-1.727,1.01l0.252,0.431zM31.468,28.32l-0.252,-0.432l-1.726,1.01l0.252,0.432z" opacity="0.8"></path><path d="M36.366,27.68l-1.167,0.843c-0.149,-0.01 -0.298,-0.023 -0.449,-0.023c-0.525,0 -1.057,0.067 -1.581,0.2l-2.633,-4.7l2.633,-4.7c0.524,0.133 1.056,0.2 1.581,0.2c0.727,0 1.424,-0.125 2.077,-0.346l1.042,0.658c2.581,-1.187 4.381,-3.79 4.381,-6.812c0,-4.135 -3.365,-7.5 -7.5,-7.5c-0.451,0 -0.89,0.047 -1.32,0.124l-0.499,1.14c-2.7,0.789 -4.681,3.284 -4.681,6.236c0,1.251 0.356,2.461 1.031,3.51l-2.925,4.99h-7.363c-0.791,-1.887 -2.44,-3.266 -4.371,-3.775l-0.464,-1.126c-0.378,-0.059 -0.763,-0.099 -1.158,-0.099c-4.135,0 -7.5,3.365 -7.5,7.5c0,4.135 3.365,7.5 7.5,7.5c0.384,0 0.759,-0.038 1.128,-0.094l0.544,-1.143c1.91,-0.52 3.537,-1.893 4.321,-3.763h7.363l2.925,4.99c-0.675,1.048 -1.031,2.258 -1.031,3.51c0,1.555 0.55,2.983 1.465,4.103l-0.132,1.319c1.347,1.284 3.164,2.078 5.167,2.078c4.135,0 7.5,-3.365 7.5,-7.5c0,-3.58 -2.523,-6.578 -5.884,-7.32zM28.75,13c0,-3.309 2.691,-6 6,-6c3.309,0 6,2.691 6,6c0,3.309 -2.691,6 -6,6c-0.543,0 -1.094,-0.078 -1.636,-0.232l-0.018,-0.005c-1.352,-0.389 -2.53,-1.243 -3.323,-2.418c-0.668,-0.992 -1.023,-2.147 -1.023,-3.345zM13,30c-3.309,0 -6,-2.691 -6,-6c0,-3.309 2.691,-6 6,-6c2.452,0 4.698,1.542 5.59,3.838c0.267,0.69 0.41,1.416 0.41,2.162c0,0.725 -0.135,1.432 -0.388,2.106l-0.021,0.053c-0.891,2.298 -3.138,3.841 -5.591,3.841zM26.644,26h-7.743c0.219,-0.645 0.349,-1.313 0.349,-2c0,-0.688 -0.134,-1.355 -0.352,-2h7.746l3.103,-5.293c0.772,1.041 1.838,1.811 3.062,2.214l-2.845,5.079l2.848,5.085c-1.231,0.403 -2.289,1.169 -3.062,2.214zM29.725,31.739c0.81,-1.245 2.027,-2.133 3.451,-2.52c0.522,-0.143 1.052,-0.219 1.574,-0.219c3.309,0 6,2.691 6,6c0,3.309 -2.691,6 -6,6c-3.309,0 -6,-2.691 -6,-6c0,-1.165 0.341,-2.287 0.975,-3.261z"></path></g></g></svg>